<svg width="443" height="111" viewBox="0 0 443 111" fill="none" xmlns="http://www.w3.org/2000/svg">
<g clip-path="url(#clip0_501_2)">
<path d="M92.6042 8.89712L97.3494 17.0528L16.089 87.6367L1.11214 61.6867C-0.370714 59.1659 -0.370714 55.9036 1.11214 53.3827L13.8647 31.4365C15.4958 34.4022 17.5718 37.8128 20.0927 41.5199C24.8378 48.4893 29.5829 53.9759 29.8795 54.2725L33.1418 57.9796L36.4041 54.2725C36.5524 53.9759 41.2975 48.4893 46.1909 41.5199C53.012 31.5848 56.4226 24.1705 56.4226 18.8322C56.4226 13.494 54.6432 8.60055 51.6775 4.74513H85.7831C88.4522 4.74513 91.1214 6.37627 92.6042 8.89712ZM21.4272 96.9786L26.7655 106.321C28.2484 108.841 30.9175 110.473 33.8832 110.473H85.4865C88.4522 110.473 91.1214 108.841 92.6042 106.321L54.4949 68.2113L21.4272 96.9786ZM102.688 26.3948L62.5023 61.2419L98.0908 96.8304L118.406 61.6867C119.889 59.1659 119.889 55.9036 118.406 53.3827L102.688 26.3948ZM32.9935 0C43.3735 0 51.974 8.45227 51.974 18.9805C51.974 29.3605 32.9935 51.6033 32.9935 51.6033C32.9935 51.6033 14.013 29.5088 14.013 18.9805C14.013 8.45227 22.4652 0 32.9935 0ZM40.4078 17.0528C40.4078 13.0491 37.1455 9.63855 32.9935 9.63855C28.9898 9.63855 25.5792 12.9008 25.5792 17.0528C25.5792 21.0565 28.8415 24.4671 32.9935 24.4671C36.9972 24.4671 40.4078 21.2048 40.4078 17.0528Z" fill="#122D42"/>
<path d="M179.835 46.6496C187.786 46.6496 194.239 53.1026 194.239 61.0535V81.9104C194.239 89.8614 187.786 96.1991 179.835 96.1991H143.422V77.7621H175.686V65.2019H157.71C149.759 65.2019 143.422 58.7489 143.422 50.7979V29.941C143.422 21.9901 149.875 15.5371 157.71 15.5371H194.239V34.0894H161.859V46.6496H179.835ZM229.269 15.5371V96.1991H210.832V15.5371H229.269ZM278.012 77.7621V15.5371H296.449V81.7952C296.449 89.7461 289.996 96.1991 282.045 96.1991H260.151C252.2 96.1991 245.862 89.7461 245.862 81.7952V65.0866H264.299V77.7621H278.012ZM349.916 15.5371L372.386 96.1991H353.949L350.723 84.5607H330.788L327.561 96.1991H309.124L331.595 15.5371H349.916ZM335.973 65.778H345.538L340.698 48.6085L335.973 65.778ZM427.813 15.5371C435.764 15.5371 442.217 21.9901 442.217 29.941V45.1516C442.217 50.4522 438.414 54.9463 433.113 55.7529L432.422 55.8681L433.113 55.9833C438.414 56.9052 442.217 61.3992 442.217 66.5846V81.9104C442.217 89.7461 435.764 96.1991 427.813 96.1991H385.177V15.5371H427.813ZM423.78 73.9594V69.0045C423.78 66.8151 422.051 65.2019 419.977 65.2019H403.614V77.7621H419.977C422.051 77.7621 423.78 76.0336 423.78 73.9594ZM423.78 42.847V37.892C423.78 35.8178 422.051 34.0894 419.977 34.0894H403.614V46.6496H419.977C422.051 46.6496 423.78 44.9211 423.78 42.847Z" fill="#122D42"/>
</g>
<defs>
<clipPath id="clip0_501_2">
<rect width="442.217" height="110.473" fill="white"/>
</clipPath>
</defs>
</svg>
