<svg width="58" height="58" viewBox="0 0 58 58" fill="none" xmlns="http://www.w3.org/2000/svg">
<path d="M18.6857 7C19.2109 7 19.6724 7.27489 19.8714 7.89471L22.2108 14.453L28.2663 12.4028C28.7677 12.2344 29.3088 12.4215 29.635 12.8764C29.6748 12.9278 29.7066 12.981 29.7384 13.0369C28.3777 13.7675 27.1762 14.8857 26.277 16.3373L23.0145 21.5867C20.8422 22.3759 19.0518 24.3356 18.4152 26.9869L16.8317 33.5487L14.0227 36.4305C13.6408 36.8296 13.0758 36.9182 12.6095 36.67C12.1392 36.4128 11.8552 35.8719 11.8918 35.2867L12.3366 28.246L6.07815 27.1642C5.56252 27.0755 5.14802 26.6499 5.03201 26.0824C4.91591 25.5149 5.12169 24.9208 5.55138 24.5927L10.7682 20.5936L7.62585 14.4645C7.49944 14.2179 7.44241 13.9346 7.46213 13.6515C7.48185 13.3683 7.57742 13.0983 7.73646 12.8764C7.89519 12.6542 8.11015 12.4902 8.35348 12.4058C8.5968 12.3214 8.85728 12.3203 9.10114 12.4028L15.1606 14.453L17.5001 7.89471C17.699 7.27489 18.1606 7 18.6857 7ZM35.2529 15.1286L46.043 18.2703C48.645 19.1216 50.523 21.6399 50.7378 24.6282L51.2869 32.0678C52.6555 33.2649 53.3239 35.2867 52.8465 37.2729L50.0455 48.9245C49.6795 50.432 48.2153 51.2566 46.9263 50.9286L45.7008 50.565C44.3401 50.1571 43.5364 48.5965 43.8945 47.089L44.555 44.3402L24.8765 38.47L24.224 41.21C23.7864 42.7263 22.4575 43.6219 21.1048 43.214L19.8714 42.8504C18.5107 42.4426 17.707 40.8908 18.073 39.3745L20.874 27.7229C21.3514 25.7366 22.8395 24.3622 24.5582 24.0873L28.3698 17.9511C29.8976 15.4771 32.6588 14.3528 35.2529 15.1286ZM33.9399 20.6113C33.4147 20.4517 32.8657 20.6822 32.5633 21.1699L29.9931 25.311L46.0271 30.0993L45.661 25.0095C45.6213 24.4863 45.2473 23.9897 44.7221 23.8301L33.9399 20.6113ZM26.0303 33.6728C27.0489 33.9743 28.0992 33.3004 28.3698 32.1654C28.6483 31.0304 28.0435 29.8687 27.025 29.5584C25.9349 29.2569 24.9561 29.9308 24.6856 31.0658C24.407 32.2008 25.0118 33.3713 26.0303 33.6728ZM46.6955 35.4374C45.677 35.1359 44.6346 35.8098 44.356 36.9448C44.0855 38.0798 44.6903 39.2415 45.7088 39.5518C46.7273 39.8533 47.7777 39.1794 48.0482 38.0444C48.3188 36.9094 47.714 35.7389 46.6955 35.4374Z" fill="#1A1A1A"/>
</svg>
