<svg width="58" height="58" viewBox="0 0 58 58" fill="none" xmlns="http://www.w3.org/2000/svg">
<path fill-rule="evenodd" clip-rule="evenodd" d="M10.6555 8.98568C9.8334 9.10339 8.83461 9.43169 8.43593 9.71543C7.82914 10.1472 6.27294 12.6872 5.84093 13.9503C5.74441 14.233 5.62896 14.2281 5.25693 13.926C4.73751 13.5038 3.06257 13.6573 2.41501 14.1863C1.77604 14.7082 1.96637 15.5054 2.85698 16.0385C3.68849 16.5364 3.68905 16.5386 3.12805 17.0384C2.8187 17.314 2.37061 18.1997 2.13229 19.0062C1.73387 20.3556 1.73776 20.6416 2.18195 22.5768C2.44747 23.734 2.7177 25.5095 2.7829 26.5222C2.93744 28.9256 3.52674 29.4604 6.02211 29.4604C8.00281 29.4604 8.83129 29.019 9.09846 27.8214L9.2813 27.0024H16.8889C24.3681 27.0024 24.4969 27.0119 24.4969 27.5609C24.4969 27.8681 24.8034 28.4212 25.178 28.7899C25.7592 29.3623 26.1191 29.4604 27.6376 29.4604C30.1995 29.4604 30.8782 28.8879 30.8782 26.7273C30.8782 25.8466 31.0075 24.7912 31.1656 24.3821C31.6647 23.0898 31.9203 20.4094 31.655 19.2476C31.5157 18.6369 31.1098 17.7608 30.7533 17.3006L30.1052 16.464L30.9078 16.0104C31.7713 15.5227 31.9555 14.706 31.319 14.1863C30.6715 13.6573 28.9965 13.5038 28.4771 13.926C28.2025 14.1492 27.9724 14.1912 27.9128 14.0295C27.4089 12.6607 25.8852 10.1292 25.3278 9.73485C24.9455 9.46446 23.8842 9.12254 22.9695 8.97505C21.0432 8.66452 12.8515 8.67161 10.6555 8.98568ZM22.2215 10.3245C23.5374 10.4744 24.4505 10.7333 24.8289 11.0635C25.307 11.4806 27.2713 15.2116 27.2713 15.7024C27.2713 15.7796 26.995 15.8034 26.6574 15.7556C26.2065 15.6914 25.9912 15.4153 25.8467 14.7167C25.7387 14.1934 25.3073 13.4748 24.8883 13.1201C24.1955 12.5334 23.9187 12.4837 21.8222 12.5695C19.3008 12.673 18.6036 13.0482 18.2446 14.4966L18.0609 15.2364L20.516 15.3279C21.8661 15.3782 20.2866 15.4197 17.0057 15.42C13.7249 15.4202 12.083 15.379 13.3567 15.3279L15.6729 15.2356L15.4895 14.496C15.1291 13.0422 14.4363 12.673 11.8721 12.5678C9.57761 12.4739 9.51077 12.4892 8.68924 13.2978C8.11881 13.8594 7.84994 14.3933 7.84994 14.9644C7.84994 15.6786 7.74591 15.8048 7.15634 15.8048C6.77483 15.8048 6.46268 15.7501 6.46268 15.6832C6.46268 15.2039 8.43924 11.4699 8.91093 11.0584C9.25106 10.7612 10.1741 10.4599 11.1019 10.3431C13.3515 10.0596 19.8049 10.0486 22.2215 10.3245ZM8.91756 20.0967C10.0151 20.6249 10.3639 21.506 9.6925 22.0544C9.43555 22.2644 8.55409 22.3551 7.27063 22.3037C5.31797 22.2256 5.2422 22.1964 4.91924 21.4036C4.70146 20.8685 4.6726 20.3578 4.83574 19.9323C5.06686 19.3296 5.19198 19.2927 6.49518 19.4445C7.27008 19.5349 8.36044 19.8282 8.91756 20.0967ZM28.8833 20.3668C28.9305 20.8481 28.8297 21.4983 28.6594 21.8119C28.3803 22.325 28.1392 22.3739 26.2442 22.3024C24.5992 22.2404 24.0724 22.1183 23.8337 21.7449C23.6121 21.3975 23.6118 21.1365 23.8337 20.7891C24.2691 20.1065 26.3849 19.3615 27.6875 19.4317C28.7185 19.4874 28.8034 19.5541 28.8833 20.3668Z" fill="#1A1A1A"/>
<path d="M32.6787 31.5156C32.4442 31.2933 31.8572 30.9894 31.3737 30.8408C30.8837 30.6898 29.76 30.6868 28.8335 30.834L27.1719 31.0977L27.0403 32.1571C26.9183 33.1386 26.9868 33.2778 27.9714 34.0509C28.556 34.51 30.7773 35.6617 32.9078 36.6104C35.0383 37.5587 36.8154 38.3593 36.8567 38.3888C36.898 38.4186 36.9254 39.5073 36.9174 40.8085C36.9012 43.4571 37.1205 44.3 37.9062 44.6073C38.3191 44.7689 44.3957 44.9871 45.3414 44.8743C45.4421 44.8624 45.362 44.0079 45.1634 42.9758C44.8689 41.4452 44.8832 40.8791 45.2419 39.9064C46.1234 37.5141 48.4853 35.7637 50.6373 35.9079C51.9764 35.9974 53.0715 35.1877 53.1622 34.0407C53.3362 31.8349 51.2325 29.3162 48.9194 28.9616C46.4291 28.5797 44.7536 29.1993 45.5682 30.2007C45.7305 30.4 45.8986 30.8444 45.9422 31.1885C46.0024 31.6675 45.8618 31.8329 45.3418 31.8949C44.9682 31.9395 44.5631 31.8506 44.4414 31.6978C44.1407 31.32 41.7123 31.9579 40.2885 32.7887C39.1836 33.4333 38.432 33.5567 37.3073 33.278C35.6981 32.8795 33.0554 31.8731 32.6787 31.5156Z" fill="#1A1A1A"/>
<path d="M33.9701 37.9782C33.3362 37.4795 32.3976 37.0022 31.8842 36.9181C31.3708 36.834 30.7615 36.7768 30.5305 36.7913C29.5155 36.8545 28.017 37.7334 27.2397 38.721C24.6345 42.0309 27.3132 46.7412 31.5155 46.2404C33.0532 46.0572 34.0466 45.4294 34.9362 44.0793L35.599 43.0731L34.5506 43.1092C33.934 43.1305 33.2495 43.3573 32.8894 43.6599C32.1123 44.3126 30.3501 44.5319 29.5084 44.0803C29.1527 43.8893 28.6696 43.323 28.4352 42.8217C27.8698 41.6123 28.2906 40.0599 29.3847 39.3178C30.4062 38.6252 30.609 38.6126 32.153 39.1453C33.1626 39.4937 33.6272 39.5139 34.2833 39.2379L35.1225 38.8854L33.9701 37.9782Z" fill="#1A1A1A"/>
<path d="M51.2006 39.7186C50.5953 38.6635 49.9453 37.5051 49.7571 37.1447C49.5683 36.784 49.2166 36.5124 48.9759 36.5411C48.2518 36.6274 46.9427 37.6437 47.1222 37.9804C48.1192 39.8508 49.7193 42.5921 49.96 42.843C50.4885 43.3931 51.8515 43.0467 52.0895 42.3022C52.2593 41.7696 52.0826 41.2551 51.2006 39.7186Z" fill="#1A1A1A"/>
<path d="M55.5974 41.2558C55.3571 39.2363 53.381 37.3102 51.345 37.1099C50.8524 37.0616 50.3686 37.0778 50.2692 37.1458C49.8881 37.4076 51.0453 38.8955 51.9526 39.3091C54.5433 40.4902 53.9821 44.2573 51.1659 44.5929C50.2384 44.7034 49.8729 44.5791 49.0885 43.8871C48.2282 43.1276 48.1366 42.9159 48.1356 41.6799C48.1352 40.8447 47.9575 40.0008 47.6799 39.5119C47.2491 38.7537 47.2049 38.7403 46.8366 39.2597C46.2691 40.0595 46.0206 41.29 46.171 42.5528C46.6198 46.3196 51.5084 47.9091 54.2418 45.1772C55.0689 44.3506 55.7364 42.4201 55.5974 41.2558Z" fill="#1A1A1A"/>
<path d="M36.5533 41.4427C36.5789 40.8787 36.567 40.1296 36.5268 39.778C36.454 39.1408 36.4463 39.1404 33.6246 39.6676C30.5973 40.2336 30.0198 40.4827 29.6712 41.3744C29.4084 42.0462 29.9981 43.1957 30.696 43.3721C30.9415 43.4343 32.3494 43.2563 33.8248 42.9767L36.5068 42.468L36.5533 41.4427Z" fill="#1A1A1A"/>
</svg>
