<svg width="58" height="58" viewBox="0 0 58 58" fill="none" xmlns="http://www.w3.org/2000/svg">
<path d="M39.9528 10.3828C33.9071 10.3828 29.0005 14.773 29.0005 20.1823C29.0005 25.5916 33.9071 29.9818 39.9528 29.9818C45.9986 29.9818 50.9052 25.5916 50.9052 20.1823C50.9052 14.773 45.9986 10.3828 39.9528 10.3828ZM39.9528 22.1422C39.3395 22.1422 38.8576 21.7111 38.8576 21.1623V15.2826C38.8576 14.7338 39.3395 14.3026 39.9528 14.3026C40.5662 14.3026 41.0481 14.7338 41.0481 15.2826V21.1623C41.0481 21.7111 40.5662 22.1422 39.9528 22.1422ZM41.0481 25.0821C41.0481 25.6308 40.5662 26.062 39.9528 26.062C39.3395 26.062 38.8576 25.6308 38.8576 25.0821C38.8576 24.5333 39.3395 24.1021 39.9528 24.1021C40.5662 24.1021 41.0481 24.5333 41.0481 25.0821ZM43.2386 47.6209C45.0348 47.6209 46.5243 46.3078 46.5243 44.6811V32.5688C44.2243 33.5685 41.7928 33.9212 39.7557 33.9016C39.8871 34.2152 39.9528 34.5484 39.9528 34.8815C39.9528 36.5083 38.4852 37.8214 36.6671 37.8214C34.849 37.8214 33.3814 36.5083 33.3814 34.8815C33.3814 34.1172 33.71 33.4312 34.2357 32.9021C30.6667 31.6108 27.7674 29.1705 26.109 26.062H13.2509L15.529 20.1823H24.6195C24.6195 18.83 24.8386 17.4972 25.2548 16.2625H14.7624C13.3167 16.2625 12.1119 17.0857 11.6519 18.242L7.33666 29.3546C7.18332 29.7662 7.0957 30.1974 7.0957 30.6482V44.6811C7.0957 46.3078 8.56332 47.6209 10.3814 47.6209C12.1995 47.6209 13.6671 46.3078 13.6671 44.6811V43.7012H39.9528V44.6811C39.9528 46.3078 41.4424 47.6209 43.2386 47.6209ZM16.9528 37.8214C15.1348 37.8214 13.6671 36.5083 13.6671 34.8815C13.6671 33.2549 15.1348 31.9417 16.9528 31.9417C18.7709 31.9417 20.2386 33.2549 20.2386 34.8815C20.2386 36.5083 18.7709 37.8214 16.9528 37.8214Z" fill="#1A1A1A"/>
</svg>
